# xmcd
#
# Track frame offsets: 
#        150
#        13112
#        27917
#        40862
#        53717
#        65147
#        77702
#        90527
#        109402
#        122672
#        138662
#        149282
#        161972
#        174557
#        186422
#        200807
#
# Disc length: 2870 seconds
#
# Revision: 2
# Processed by: cddbd v1.4PL0 Copyright (c) Steve Scherf et al.
# Submitted via: ExactAudioCopy v0.90a11
#
DISCID=f00b3410
DTITLE=Koerner, Ray and Glover - One Foot in the Groove
DYEAR=1900
DGENRE=
TTITLE0=Black Jack Davy
TTITLE1=Shout Sister Shout
TTITLE2=Shenendoah
TTITLE3=Terra Mae
TTITLE4=Shortnin' Bread
TTITLE5=With Body and Soul
TTITLE6=Deliah's Gone
TTITLE7=France Blues
TTITLE8=Dodger
TTITLE9='Way Back Down Home
TTITLE10=Power Tool
TTITLE11=Pick Poor Robin Clean
TTITLE12=Boys Were Shooting It Out
TTITLE13=You Got To Move
TTITLE14=I Ain't Blue
TTITLE15=Black Dog Blues
EXTD=
EXTT0=
EXTT1=
EXTT2=
EXTT3=
EXTT4=
EXTT5=
EXTT6=
EXTT7=
EXTT8=
EXTT9=
EXTT10=
EXTT11=
EXTT12=
EXTT13=
EXTT14=
EXTT15=
PLAYORDER=
